<svg width="615" height="479" viewBox="0 0 615 479" fill="none" xmlns="http://www.w3.org/2000/svg">
<rect width="615" height="479" fill="white"/>
<path d="M481.501 345.133C471.822 345.477 461.714 350.742 452.748 353.534C418.23 364.283 383.041 370.275 346.772 370.268C297.24 370.257 237.301 365.291 192.089 343.676C153.613 325.281 104.838 286.255 96.8184 241.444C88.7728 196.489 148.048 155.732 179.945 136.672C234.509 104.069 297.802 91.2414 360.852 92.3445C415.287 93.2969 476.714 102.287 522.703 133.82C587.427 178.199 582.641 258.525 534.087 313.404C457.942 399.469 322.12 429.489 212.653 409.127C160.657 399.456 101.128 378.27 76.1301 327.297C49.3255 272.642 67.8071 214.089 102.38 168.246C186.688 56.4529 351.606 6.58861 481.065 67.4841C561.155 105.157 616.256 192.169 576.024 279.445C565.994 301.204 548.132 322.534 530.986 338.507C487.922 378.623 436.498 412.083 381.659 433.546C315.601 459.398 237.177 466.565 169.62 441.797C70.6708 405.52 4.42484 300.843 48.7969 197.789C79.7624 125.873 152.341 80.7246 221.608 51.1057C291.201 21.3479 374.299 4.01618 449.105 23.1066C543.105 47.0957 622.573 130.062 606.776 231.555C588.551 348.65 490.672 431.278 380.127 458.948C252.269 490.951 79.7705 473.821 19.1346 336.776C-13.8461 262.235 22.4955 181.654 76.8464 128.315C131.012 75.1573 200.055 41.513 266.049 6.04314" stroke="black" stroke-width="12" stroke-linecap="round"/>
</svg>
